<?xml version="1.0" encoding="us-ascii" standalone="no"?><svg xmlns="http://www.w3.org/2000/svg" xmlns:xlink="http://www.w3.org/1999/xlink" contentStyleType="text/css" height="855px" preserveAspectRatio="none" style="width:1310px;height:855px;background:#FFFFFF;" version="1.1" viewBox="0 0 1310 855" width="1310px" zoomAndPan="magnify"><defs/><g><!--cluster db--><g id="cluster_db"><rect fill="none" height="93.37" rx="2.5" ry="2.5" style="stroke:#181818;stroke-width:1.0;" width="238" x="117" y="755.95"/><line style="stroke:#181818;stroke-width:1.0;" x1="117" x2="355" y1="776.4383" y2="776.4383"/><text fill="#000000" font-family="sans-serif" font-size="14" font-weight="bold" lengthAdjust="spacing" textLength="222" x="125" y="771.4852">Docker Container: coffee-db-1</text></g><!--cluster app--><g id="cluster_app"><rect fill="none" height="637.08" rx="2.5" ry="2.5" style="stroke:#181818;stroke-width:1.0;" width="917" x="7" y="94.87"/><line style="stroke:#181818;stroke-width:1.0;" x1="7" x2="924" y1="115.3583" y2="115.3583"/><text fill="#000000" font-family="sans-serif" font-size="14" font-weight="bold" lengthAdjust="spacing" textLength="230" x="350.5" y="110.4052">Docker Container: coffee-app-1</text></g><!--cluster models--><g id="cluster_models"><polygon fill="#FFFFFF" points="39,568.65,49,558.65,244,558.65,244,677.76,234,687.76,39,687.76,39,568.65" style="stroke:#AAAAAA;stroke-width:1.0;"/><line style="stroke:#AAAAAA;stroke-width:1.0;" x1="234" x2="244" y1="568.65" y2="558.65"/><line style="stroke:#AAAAAA;stroke-width:1.0;" x1="39" x2="234" y1="568.65" y2="568.65"/><line style="stroke:#AAAAAA;stroke-width:1.0;" x1="234" x2="234" y1="568.65" y2="687.76"/><text fill="#000000" font-family="Verdana" font-size="11" font-weight="bold" lengthAdjust="spacing" textLength="46" x="114.5" y="582.7091">models</text></g><!--cluster controllers--><g id="cluster_controllers"><polygon fill="#FFFFFF" points="457,356.17,467,346.17,644,346.17,644,465.27,634,475.27,457,475.27,457,356.17" style="stroke:#AAAAAA;stroke-width:1.0;"/><line style="stroke:#AAAAAA;stroke-width:1.0;" x1="634" x2="644" y1="356.17" y2="346.17"/><line style="stroke:#AAAAAA;stroke-width:1.0;" x1="457" x2="634" y1="356.17" y2="356.17"/><line style="stroke:#AAAAAA;stroke-width:1.0;" x1="634" x2="634" y1="356.17" y2="475.27"/><text fill="#000000" font-family="Verdana" font-size="11" font-weight="bold" lengthAdjust="spacing" textLength="67" x="513" y="370.2291">controllers</text></g><!--cluster views--><g id="cluster_views"><polygon fill="#FFFFFF" points="284,537.46,294,527.46,892,527.46,892,689.95,882,699.95,284,699.95,284,537.46" style="stroke:#AAAAAA;stroke-width:1.0;"/><line style="stroke:#AAAAAA;stroke-width:1.0;" x1="882" x2="892" y1="537.46" y2="527.46"/><line style="stroke:#AAAAAA;stroke-width:1.0;" x1="284" x2="882" y1="537.46" y2="537.46"/><line style="stroke:#AAAAAA;stroke-width:1.0;" x1="882" x2="882" y1="537.46" y2="699.95"/><text fill="#000000" font-family="Verdana" font-size="11" font-weight="bold" lengthAdjust="spacing" textLength="36" x="566" y="551.5191">views</text></g><!--cluster layouts--><g id="cluster_layouts"><path d="M318.5,580.46 L372.5,580.46 A3.75,3.75 0 0 1 375,582.96 L382,602.9483 L481.5,602.9483 A2.5,2.5 0 0 1 484,605.4483 L484,665.45 A2.5,2.5 0 0 1 481.5,667.95 L318.5,667.95 A2.5,2.5 0 0 1 316,665.45 L316,582.96 A2.5,2.5 0 0 1 318.5,580.46 " fill="none" style="stroke:#000000;stroke-width:1.5;"/><line style="stroke:#000000;stroke-width:1.5;" x1="316" x2="382" y1="602.9483" y2="602.9483"/><text fill="#000000" font-family="sans-serif" font-size="14" font-weight="bold" lengthAdjust="spacing" textLength="53" x="320" y="595.9952">layouts</text></g><!--cluster coffeeShops--><g id="cluster_coffeeShops"><path d="M510.5,580.46 L598.5,580.46 A3.75,3.75 0 0 1 601,582.96 L608,602.9483 L849.5,602.9483 A2.5,2.5 0 0 1 852,605.4483 L852,665.45 A2.5,2.5 0 0 1 849.5,667.95 L510.5,667.95 A2.5,2.5 0 0 1 508,665.45 L508,582.96 A2.5,2.5 0 0 1 510.5,580.46 " fill="none" style="stroke:#000000;stroke-width:1.5;"/><line style="stroke:#000000;stroke-width:1.5;" x1="508" x2="608" y1="602.9483" y2="602.9483"/><text fill="#000000" font-family="sans-serif" font-size="14" font-weight="bold" lengthAdjust="spacing" textLength="87" x="512" y="595.9952">coffeeShops</text></g><!--cluster static--><g id="cluster_static"><polygon fill="#FFFFFF" points="684,324.97,694,314.97,892,314.97,892,477.46,882,487.46,684,487.46,684,324.97" style="stroke:#AAAAAA;stroke-width:1.0;"/><line style="stroke:#AAAAAA;stroke-width:1.0;" x1="882" x2="892" y1="324.97" y2="314.97"/><line style="stroke:#AAAAAA;stroke-width:1.0;" x1="684" x2="882" y1="324.97" y2="324.97"/><line style="stroke:#AAAAAA;stroke-width:1.0;" x1="882" x2="882" y1="324.97" y2="487.46"/><text fill="#000000" font-family="Verdana" font-size="11" font-weight="bold" lengthAdjust="spacing" textLength="89" x="739.5" y="339.0291">static_content</text></g><!--cluster public--><g id="cluster_public"><path d="M718.5,367.97 L763.5,367.97 A3.75,3.75 0 0 1 766,370.47 L773,390.4583 L849.5,390.4583 A2.5,2.5 0 0 1 852,392.9583 L852,452.96 A2.5,2.5 0 0 1 849.5,455.46 L718.5,455.46 A2.5,2.5 0 0 1 716,452.96 L716,370.47 A2.5,2.5 0 0 1 718.5,367.97 " fill="none" style="stroke:#000000;stroke-width:1.5;"/><line style="stroke:#000000;stroke-width:1.5;" x1="716" x2="773" y1="390.4583" y2="390.4583"/><text fill="#000000" font-family="sans-serif" font-size="14" font-weight="bold" lengthAdjust="spacing" textLength="44" x="720" y="383.5052">public</text></g><!--cluster routes--><g id="cluster_routes"><polygon fill="#FFFFFF" points="669,155.87,679,145.87,892,145.87,892,264.97,882,274.97,669,274.97,669,155.87" style="stroke:#AAAAAA;stroke-width:1.0;"/><line style="stroke:#AAAAAA;stroke-width:1.0;" x1="882" x2="892" y1="155.87" y2="145.87"/><line style="stroke:#AAAAAA;stroke-width:1.0;" x1="669" x2="882" y1="155.87" y2="155.87"/><line style="stroke:#AAAAAA;stroke-width:1.0;" x1="882" x2="882" y1="155.87" y2="274.97"/><text fill="#000000" font-family="Verdana" font-size="11" font-weight="bold" lengthAdjust="spacing" textLength="40" x="756.5" y="169.9291">routes</text></g><!--cluster cdn--><g id="cluster_cdn"><rect fill="none" height="103.49" rx="2.5" ry="2.5" style="stroke:#181818;stroke-width:1.0;" width="347" x="956" y="159.68"/><line style="stroke:#181818;stroke-width:1.0;" x1="956" x2="1303" y1="180.1683" y2="180.1683"/><text fill="#000000" font-family="sans-serif" font-size="14" font-weight="bold" lengthAdjust="spacing" textLength="32" x="1113.5" y="175.2152">CDN</text></g><!--entity database--><g id="elem_database"><path d="M188,800.95 C188,790.95 236,790.95 236,790.95 C236,790.95 284,790.95 284,800.95 L284,823.3187 C284,833.3187 236,833.3187 236,833.3187 C236,833.3187 188,833.3187 188,823.3187 L188,800.95 " fill="#FFFFFF" style="stroke:#AAAAAA;stroke-width:0.5;"/><path d="M188,800.95 C188,810.95 236,810.95 236,810.95 C236,810.95 284,810.95 284,800.95 " fill="none" style="stroke:#AAAAAA;stroke-width:0.5;"/><text fill="#000000" font-family="Verdana" font-size="11" lengthAdjust="spacing" textLength="76" x="198" y="826.0091">Coffee Shops</text></g><!--entity CoffeeShopModel--><g id="elem_CoffeeShopModel"><rect fill="#FFFFFF" height="60.106" rx="2.5" ry="2.5" style="stroke:#AAAAAA;stroke-width:0.5;" width="137" x="63.5" y="603.65"/><text fill="#000000" font-family="Verdana" font-size="11" lengthAdjust="spacing" textLength="58" x="73.5" y="624.7091">+ findAll()</text><text fill="#000000" font-family="Verdana" font-size="11" lengthAdjust="spacing" textLength="107" x="73.5" y="638.0777">+ find(id: number)</text><text fill="#000000" font-family="Verdana" font-size="11" lengthAdjust="spacing" textLength="117" x="73.5" y="651.4464">+ create(data: json)</text></g><!--entity CoffeeShopController--><g id="elem_CoffeeShopController"><rect fill="#FFFFFF" height="60.106" rx="2.5" ry="2.5" style="stroke:#AAAAAA;stroke-width:0.5;" width="120" x="481" y="391.17"/><text fill="#000000" font-family="Verdana" font-size="11" lengthAdjust="spacing" textLength="99" x="491" y="412.2291">+ findAll(req,res)</text><text fill="#000000" font-family="Verdana" font-size="11" lengthAdjust="spacing" textLength="85" x="491" y="425.5977">+ find(req,res)</text><text fill="#000000" font-family="Verdana" font-size="11" lengthAdjust="spacing" textLength="100" x="491" y="438.9664">+ create(req,res)</text></g><!--entity main.handlebars--><g id="elem_main.handlebars"><path d="M332.5,617.96 L332.5,649.4483 A2.5,2.5 0 0 0 335,651.9483 L465,651.9483 A2.5,2.5 0 0 0 467.5,649.4483 L467.5,625.46 L457.5,615.46 L335,615.46 A2.5,2.5 0 0 0 332.5,617.96 " fill="#F1F1F1" style="stroke:#181818;stroke-width:0.5;"/><path d="M457.5,615.46 L457.5,622.96 A2.5,2.5 0 0 0 460,625.46 L467.5,625.46 " fill="#F1F1F1" style="stroke:#181818;stroke-width:0.5;"/><text fill="#000000" font-family="sans-serif" font-size="14" lengthAdjust="spacing" textLength="115" x="342.5" y="638.9952">main.handlebars</text></g><!--entity index.handlebars--><g id="elem_index.handlebars"><path d="M524,617.96 L524,649.4483 A2.5,2.5 0 0 0 526.5,651.9483 L661.5,651.9483 A2.5,2.5 0 0 0 664,649.4483 L664,625.46 L654,615.46 L526.5,615.46 A2.5,2.5 0 0 0 524,617.96 " fill="#F1F1F1" style="stroke:#181818;stroke-width:0.5;"/><path d="M654,615.46 L654,622.96 A2.5,2.5 0 0 0 656.5,625.46 L664,625.46 " fill="#F1F1F1" style="stroke:#181818;stroke-width:0.5;"/><text fill="#000000" font-family="sans-serif" font-size="14" lengthAdjust="spacing" textLength="120" x="534" y="638.9952">index.handlebars</text></g><!--entity show.handlebars--><g id="elem_show.handlebars"><path d="M698.5,617.96 L698.5,649.4483 A2.5,2.5 0 0 0 701,651.9483 L833,651.9483 A2.5,2.5 0 0 0 835.5,649.4483 L835.5,625.46 L825.5,615.46 L701,615.46 A2.5,2.5 0 0 0 698.5,617.96 " fill="#F1F1F1" style="stroke:#181818;stroke-width:0.5;"/><path d="M825.5,615.46 L825.5,622.96 A2.5,2.5 0 0 0 828,625.46 L835.5,625.46 " fill="#F1F1F1" style="stroke:#181818;stroke-width:0.5;"/><text fill="#000000" font-family="sans-serif" font-size="14" lengthAdjust="spacing" textLength="117" x="708.5" y="638.9952">show.handlebars</text></g><!--entity Static js+css--><g id="elem_Static js+css"><path d="M732,405.47 L732,436.9583 A2.5,2.5 0 0 0 734.5,439.4583 L833.5,439.4583 A2.5,2.5 0 0 0 836,436.9583 L836,412.97 L826,402.97 L734.5,402.97 A2.5,2.5 0 0 0 732,405.47 " fill="#F1F1F1" style="stroke:#181818;stroke-width:0.5;"/><path d="M826,402.97 L826,410.47 A2.5,2.5 0 0 0 828.5,412.97 L836,412.97 " fill="#F1F1F1" style="stroke:#181818;stroke-width:0.5;"/><text fill="#000000" font-family="sans-serif" font-size="14" lengthAdjust="spacing" textLength="84" x="742" y="426.5052">Static js+css</text></g><!--entity api--><g id="elem_api"><rect fill="#FFFFFF" height="60.106" rx="2.5" ry="2.5" style="stroke:#AAAAAA;stroke-width:0.5;" width="155" x="693.5" y="190.87"/><text fill="#000000" font-family="Verdana" font-size="11" lengthAdjust="spacing" textLength="115" x="703.5" y="211.9291">+ GET /coffeeShops</text><text fill="#000000" font-family="Verdana" font-size="11" lengthAdjust="spacing" textLength="135" x="703.5" y="225.2977">+ GET /coffeeShops/:id</text><text fill="#000000" font-family="Verdana" font-size="11" lengthAdjust="spacing" textLength="123" x="703.5" y="238.6664">+ POST /coffeeShops</text></g><!--entity Bootstrap css+js--><g id="elem_Bootstrap css+js"><path d="M979.5,205.18 L979.5,236.6683 A2.5,2.5 0 0 0 982,239.1683 L1110,239.1683 A2.5,2.5 0 0 0 1112.5,236.6683 L1112.5,212.68 L1102.5,202.68 L982,202.68 A2.5,2.5 0 0 0 979.5,205.18 " fill="#F1F1F1" style="stroke:#181818;stroke-width:0.5;"/><path d="M1102.5,202.68 L1102.5,210.18 A2.5,2.5 0 0 0 1105,212.68 L1112.5,212.68 " fill="#F1F1F1" style="stroke:#181818;stroke-width:0.5;"/><text fill="#000000" font-family="sans-serif" font-size="14" lengthAdjust="spacing" textLength="113" x="989.5" y="226.2152">Bootstrap css+js</text></g><!--entity Leaflet css+js--><g id="elem_Leaflet css+js"><path d="M1148,205.18 L1148,236.6683 A2.5,2.5 0 0 0 1150.5,239.1683 L1257.5,239.1683 A2.5,2.5 0 0 0 1260,236.6683 L1260,212.68 L1250,202.68 L1150.5,202.68 A2.5,2.5 0 0 0 1148,205.18 " fill="#F1F1F1" style="stroke:#181818;stroke-width:0.5;"/><path d="M1250,202.68 L1250,210.18 A2.5,2.5 0 0 0 1252.5,212.68 L1260,212.68 " fill="#F1F1F1" style="stroke:#181818;stroke-width:0.5;"/><text fill="#000000" font-family="sans-serif" font-size="14" lengthAdjust="spacing" textLength="92" x="1158" y="226.2152">Leaflet css+js</text></g><!--entity client--><g id="elem_client"><ellipse cx="1089" cy="14" fill="#2A86E2" rx="8" ry="8" style="stroke:#1A66C2;stroke-width:0.5;"/><path d="M1089,22 L1089,49 M1076,30 L1102,30 M1089,49 L1076,64 M1089,49 L1102,64 " fill="none" style="stroke:#1A66C2;stroke-width:0.5;"/><text fill="#000000" font-family="Verdana" font-size="11" lengthAdjust="spacing" textLength="65" x="1056.5" y="76.5591">HTTP Client</text></g><!--link client to routes--><g id="link_client_routes"><path d="M1050.3334,49.4704 C1023.1934,55.0604 990.75,65.11 964,86.87 C937.655,108.3 917.8625,140.8675 904.555,168.4175 C901.2281,175.305 898.3066,181.8789 895.7893,187.8868 C894.5306,190.8907 893.373,193.7532 892.3164,196.4426 C892.2503,196.6107 894.3714,191.1907 894.3062,191.3575 " fill="none" id="client-routes" style="stroke:#000000;stroke-width:1.0;"/><polygon fill="#000000" points="1056.21,48.26,1046.5881,46.1578,1051.3128,49.2687,1048.202,53.9934,1056.21,48.26" style="stroke:#000000;stroke-width:1.0;"/><polygon fill="#000000" points="892.1194,196.9448,899.1244,190.0216,893.9417,192.2887,891.6746,187.106,892.1194,196.9448" style="stroke:#000000;stroke-width:1.0;"/></g><!--link routes to controllers--><g id="link_routes_controllers"><path d="M874.4467,280.5342 C873.5456,282.2273 873.8113,281.0089 872.7263,282.5753 C870.5564,285.708 868.0025,288.5525 865,290.97 C839.17,311.77 744.77,282.48 716,298.97 C688.435,314.775 668.625,344.395 655.6138,370.4013 C652.3609,376.9028 649.533,383.1785 647.1151,388.956 C646.5107,390.4004 645.9318,391.8137 645.3783,393.1915 C645.1016,393.8804 644.8312,394.5605 644.5672,395.2312 C644.4351,395.5666 646.484,390.3093 646.3551,390.6399 " fill="none" id="routes-controllers" style="stroke:#000000;stroke-width:1.0;"/><polygon fill="#000000" points="876.988,275.099,869.5525,281.5576,874.8702,279.6284,876.7995,284.9461,876.988,275.099" style="stroke:#000000;stroke-width:1.0;"/><polygon fill="#000000" points="644.1758,396.2302,651.1715,389.2977,645.9919,391.5716,643.7179,386.392,644.1758,396.2302" style="stroke:#000000;stroke-width:1.0;"/></g><!--link controllers to models--><g id="link_controllers_models"><path d="M632.2697,481.0742 C631.6726,483.2416 632.5815,479.6006 631.7986,481.7 C628.6669,490.0975 623.9625,497.7875 617,503.46 C591.07,524.6 345.25,495.22 316,511.46 C288.225,526.89 268.41,556.5025 255.4488,582.5988 C252.2084,589.1228 249.3965,595.4271 246.9956,601.2351 C246.3954,602.6871 245.8209,604.1081 245.2718,605.4937 C244.9972,606.1865 244.729,606.8705 244.4671,607.5451 C244.3362,607.8824 246.3589,602.6166 246.2311,602.9492 " fill="none" id="controllers-models" style="stroke:#000000;stroke-width:1.0;"/><polygon fill="#000000" points="633.8632,475.2897,627.6166,482.9041,632.5353,480.1101,635.3293,485.0288,633.8632,475.2897" style="stroke:#000000;stroke-width:1.0;"/><polygon fill="#000000" points="244.0791,608.5499,251.041,601.5835,245.8724,603.8826,243.5733,598.7141,244.0791,608.5499" style="stroke:#000000;stroke-width:1.0;"/></g><!--reverse link controllers to views--><g id="link_controllers_views"><path d="M647.49,440.18 C648.698,441.9379 648.3982,441.3748 649.8046,443.3221 C652.6174,447.2167 655.8172,451.4438 659.3638,455.8175 C673.55,473.3125 693.285,493.155 716,503.46 C743.57,515.97 828.57,492.29 852,511.46 C857.3075,515.8025 861.7933,520.912 865.5792,526.5341 C865.6975,526.7098 865.8152,526.886 865.9321,527.0626 " fill="none" id="controllers-backto-views" style="stroke:#000000;stroke-width:1.0;"/><polygon fill="#000000" points="644.1456,435.1985,645.8413,444.9003,646.9326,439.3497,652.4832,440.4411,644.1456,435.1985" style="stroke:#000000;stroke-width:1.0;"/></g><!--reverse link routes to static--><g id="link_routes_static"><path d="M884,281.4129 C884,284.1403 884,282.9578 884,285.7842 C884,291.4371 884,297.2659 884,303.1827 C884,306.1411 884,309.1215 884,312.1128 C884,312.8607 884,313.6092 884,314.3582 C884,314.5455 884,314.7328 884,314.9201 " fill="none" id="routes-backto-static" style="stroke:#000000;stroke-width:1.0;"/><polygon fill="#000000" points="884,275.4129,880,284.4129,884,280.4129,888,284.4129,884,275.4129" style="stroke:#000000;stroke-width:1.0;"/></g><!--link models to database--><g id="link_models_database"><path d="M236,694.0552 C236,696.0518 236,695.0491 236,697.0913 C236,729.765 236,761.625 236,784.46 " fill="none" id="models-database" style="stroke:#000000;stroke-width:1.0;"/><polygon fill="#000000" points="236,688.0552,232,697.0552,236,693.0552,240,697.0552,236,688.0552" style="stroke:#000000;stroke-width:1.0;"/><polygon fill="#000000" points="236,790.46,240,781.46,236,785.46,232,781.46,236,790.46" style="stroke:#000000;stroke-width:1.0;"/></g><!--reverse link client to cdn--><g id="link_client_cdn"><path d="M1127.6717,47.0966 C1175.6017,52.5366 1255.51,64.5 1276,86.87 C1285.93,97.71 1292.1231,111.2725 1295.8173,125.5611 C1297.6645,132.7054 1298.8868,140.0312 1299.6392,147.289 C1300.0154,150.9179 1300.2741,154.5298 1300.4347,158.0935 C1300.4548,158.5389 1300.4733,158.9836 1300.4903,159.4275 " fill="none" id="client-backto-cdn" style="stroke:#000000;stroke-width:1.0;"/><polygon fill="#000000" points="1121.71,46.42,1130.2015,51.4095,1126.6781,46.9839,1131.1037,43.4605,1121.71,46.42" style="stroke:#000000;stroke-width:1.0;"/></g><!--SRC=[XLHTRzem57tFht1vOkeW0SAdfaahhTf9RAi4UvhGT6FVG9WJPxPJLbNyzpbE5Z88hHyYwzxhSyxzoXN3C4gGB3xVFwnk5j_ldAieeJnZc4bEjbgdQkQwcqZfxYRIsop854eg4es9xb8Hkn1lbCjmE1wEFA_NXmaCGm_zlk-5Wsa_68qdu7kkXBrBfzw0ZW8_x8s2aHSC4SD1tv-4tdJWJySX00x6at3OSvL-vjXDivWx3b0j96azh5QFPCuZmzeYe0YrLyUX81bftGhw2oMP6rbWaf4pGaKO8dPOqEdPU1QG5uUOmq1300gFbn_Mdf-vVKIMMv4gQrmx1-TD3aZJaiJSIfP4C2In-N3rKi5Bf1gI3SUIAEVvaiVK9EJdcfYEi4-SjzyrsDiHcv4aYmEKfsug4JIsyyncPAT4SWnOszlXA2vleHISerJaTOdpAlAYJec_tqjKZN8l-4gjPzupeKyHxkiIGy6PaSBXMMIwxh3Eo4YFJN-wMqWOnm2agW8EfnYqoh4HnwZ7Fqr0LOJQYlrb9ZCxLHPAWuxept9nyc4fBEU9fLd0_xDNRArbyMIdhgbIhLVOf2aDDlSLqkYiZVTtA-BMYl66svr5x2JayTko6M9TrrOiBVdGwNmi9LfpgTQQQsDPFAcDgGqebgh9LqpA2M9PPcijdXOm_xO_Nt2xt_FRh_Q_mfAoR4N9RuJGIaj8YIdvzQwiUk5R88GSTUN9eQeCSoJdBm00]--></g></svg>